<svg xmlns="http://www.w3.org/2000/svg" version="1.1" xmlns:xlink="http://www.w3.org/1999/xlink" xmlns:svgjs="http://svgjs.dev/svgjs" viewBox="0 0 1920 1080" class="overflow-hidden rounded-md drop-shadow-lg transition duration-300" style="overflow: hidden; height: 85vh;"><rect width="1920" height="1080" fill="#dedede"/><g clip-path="url(&quot;#SvgjsClipPath3221&quot;)"><g transform="matrix(-2.112515728529184e-16,-1.15,1.15,-2.112515728529184e-16,302.03120422363304,1601.4858848571778)"><path d="M0,-1080C12.279835694516231,-1007.0243497096599,72.75023858766323,-783.8314501585535,73.67901416709739,-642.1460982579592C74.60778974653155,-500.460746357365,23.666062743243774,-402.29954634783735,5.572653476604941,-229.88788859643452C-12.520755790033892,-57.476230845031694,-31.942988632324425,226.06891033849155,-34.88144143273561,392.32384825045773C-37.8198942331468,558.578786162424,-6.028801769649083,613.3165650506184,-12.058063325862179,767.6417388753625C-18.087324882075276,921.9669127001067,-63.38483298142785,1150.5350705845485,-71.05701077001419,1318.2748911989231C-78.72918855860053,1486.0147118132977,-69.9339651857159,1633.793144428098,-58.09113005738021,1774.0806625616108C-46.24829492904451,1914.3681806951236,-9.68185500956337,2095.6801104269352,0,2160L 1920 2160 L 1920 -1080 Z" fill="url(&quot;#SvgjsLinearGradient3209&quot;)"/><path d="M160,-1080C147.68028504725638,-958.1765075600296,80.4582230907853,-633.5161962397997,86.08171028353827,-349.05904536017727C91.70519747629125,-64.6018944805549,171.29629577227362,350.9999448610698,193.74092315651782,626.7429052777342C216.18555054076202,902.4858656943985,226.37296178175643,1049.8558680194312,220.74947458900346,1305.398717139809C215.12598739625048,1560.9415662601866,170.12491243150058,2017.566452856635,160,2160L 1920 2160 L 1920 -1080 Z" fill="url(&quot;#SvgjsLinearGradient3210&quot;)"/><path d="M320,-1080C307.7850413125286,-1007.8140749206889,263.2563011023188,-785.6648895423273,246.7102478751718,-646.8844495241336C230.1641946480248,-508.10400950594,213.4911502605972,-418.0755715507721,220.72368063711795,-247.3173598908383C227.9562110136387,-76.55914823090447,284.9885291695689,209.66249201064846,290.1054301342963,377.66482043546927C295.2223310990237,545.6671488602901,238.66931710362667,628.9353588355557,251.42508642548248,760.6966106580865C264.1808557473383,892.4578624806172,341.4108336793828,1023.2116135432135,366.64004606543114,1168.232331370654C391.8692584514795,1313.2530491980947,410.5737017526777,1465.5263061845053,402.8003607417725,1630.8209176227297C395.0270197308673,1796.115529060954,333.8000601236288,2071.803486270455,320,2160L 1920 2160 L 1920 -1080 Z" fill="url(&quot;#SvgjsLinearGradient3211&quot;)"/><path d="M480,-1080C491.2900490758987,-988.1354361914573,545.0203657256825,-700.9213211287814,547.7402944553922,-528.8126171487442C550.460223185102,-356.7039131687069,516.2628937336117,-235.19769007735198,496.3195723782583,-47.34777611977674C476.37625102290485,140.5021378377985,429.9989413902159,400.88125437200756,428.08036632327156,598.2868665967072C426.1617912563272,795.6924788214069,484.54247507347475,954.8229523542758,484.808121976592,1137.0858972284216C485.0737688797093,1319.3488421025672,430.4756014047407,1521.3788520463186,429.67424774197536,1691.8645358415818C428.87289407921,1862.350219636845,471.61237462366256,2081.9774226402637,480,2160L 1920 2160 L 1920 -1080 Z" fill="url(&quot;#SvgjsLinearGradient3212&quot;)"/><path d="M640,-1080C632.2588980792135,-993.6440067086993,600.2166689321584,-753.6234842053044,593.5533884752813,-561.8640402521958C586.8901080184041,-370.1045962990871,605.3679337302005,-125.71277761179161,600.0203172587374,70.55666371865183C594.6727007872742,266.8261050490953,558.1860970693748,449.1184151607515,561.4676896465021,615.7526077304649C564.7492822236294,782.3868003001783,601.3671774207768,892.2839129587455,619.7098727215013,1070.3618191369324C638.0525680222257,1248.4397253151192,668.1421735710994,1502.6136813224082,671.5238614508492,1684.220044799586C674.9055493305989,1865.826408276764,645.2539769084749,2080.703340799931,640,2160L 1920 2160 L 1920 -1080 Z" fill="url(&quot;#SvgjsLinearGradient3213&quot;)"/><path d="M800,-1080C802.5977648872081,-1002.6402955441084,809.236676529663,-765.2624002575687,815.5865893232485,-615.8417732646503C821.936502116834,-466.4211462717319,833.7399331784245,-325.46391540797936,838.0994767615134,-183.47623804248977C842.4590203446023,-41.48856067700021,833.9415781917313,123.27116519321042,841.7438508217821,236.08429092828703C849.5461234518328,348.89741666336363,898.4774679103174,359.4839775164436,884.913112541818,493.40251636796995C871.3487571733186,627.3210552194963,763.4829847782752,884.1611418976697,760.3577186107859,1039.5955240374453C757.2324524432967,1195.029906177221,855.2528986065053,1310.3274561791372,866.1615155368822,1426.0088092066235C877.0701324672592,1541.6901622341097,836.8363394491946,1611.3517770701326,825.8094201930476,1733.683642202362C814.7825009369005,1856.0155073345916,804.3015700321746,2088.9472737003935,800,2160L 1920 2160 L 1920 -1080 Z" fill="url(&quot;#SvgjsLinearGradient3214&quot;)"/><path d="M960,-1080C953.0918261680645,-969.0613527065783,922.4418444911756,-634.4202545005078,918.5509570083871,-414.36811623947006C914.6600695255985,-194.31597797843233,928.6441960555431,22.108187136660774,936.6546751032685,240.31282956622627C944.6651541509938,458.51747199579177,956.9916756264649,690.4672397657141,966.6138312947392,894.8597383379229C976.2359869630134,1099.2522369101316,995.4899143287035,1255.811110722466,994.3876091129137,1466.6678209994789C993.2853038971238,1677.5245312764916,965.7312681854856,2044.4446368332465,960,2160L 1920 2160 L 1920 -1080 Z" fill="url(&quot;#SvgjsLinearGradient3215&quot;)"/><path d="M1120,-1080C1122.2652941931722,-1003.9112572123207,1143.3048045204127,-788.6524095073661,1133.5917651590335,-623.4675432739241C1123.8787257976542,-458.2826770404821,1071.1777557090288,-296.84882172796296,1061.7217638317245,-88.8908025993483C1052.2657719544202,119.06721652926636,1080.1297191922727,415.0232677725854,1076.855813895208,624.280571497764C1073.5819085981434,833.5378752229425,1045.9026259882917,998.5042515444476,1042.078332049337,1166.6530197517231C1038.2540381103822,1334.8017879589988,1040.9231056030355,1467.6153507000379,1053.9100502614795,1633.1731807414174C1066.8969949199234,1798.7310107827968,1108.9850083769134,2072.1955301235694,1120,2160L 1920 2160 L 1920 -1080 Z" fill="url(&quot;#SvgjsLinearGradient3216&quot;)"/><path d="M1280,-1080C1287.1017768606414,-974.3514384123321,1314.549825504239,-621.6618368783471,1322.6106611638486,-446.10863047399255C1330.6714968234583,-270.555424069638,1325.4083314897591,-186.94887161335697,1328.3650139576582,-26.680761573872687C1331.3216964255573,133.58734846561163,1345.3112264168726,315.9380665834484,1340.3507559712434,515.5000297629133C1335.3902855256142,715.0619929423782,1310.252606120671,985.6636440450744,1298.6021912838837,1170.6910175029168C1286.9517764470963,1355.718390960759,1273.5486321644994,1460.779440093787,1270.4482669505187,1625.6642705099673C1267.347901736538,1790.5491009261477,1278.4080444917531,2070.9440450849947,1280,2160L 1920 2160 L 1920 -1080 Z" fill="url(&quot;#SvgjsLinearGradient3217&quot;)"/><path d="M1440,-1080C1456.2773473181635,-981.0659775746396,1539.1168528407518,-659.3056741481723,1537.6640839089812,-486.39586544783776C1536.2113149772106,-313.4860567475032,1441.4418312675245,-205.38036395276504,1431.2833864093766,-42.54114779799266C1421.1249415512286,120.29806835677971,1480.650761509753,297.50242453901694,1476.7134147600939,490.6394314807965C1472.7760680104348,683.776438422576,1424.650392275191,929.0059048430589,1407.6593059114225,1116.2808938526846C1390.668219547654,1303.5558828623102,1369.3767808960536,1440.3361811806647,1374.766896577483,1614.2893655385506C1380.1570122589126,1788.2425498964365,1429.1278160962472,2069.0482275897584,1440,2160L 1920 2160 L 1920 -1080 Z" fill="url(&quot;#SvgjsLinearGradient3218&quot;)"/><path d="M1600,-1080C1587.2391246571544,-1009.8848941913218,1535.8927751820765,-818.6324261345598,1523.4347479429268,-659.3093651479305C1510.9767207037771,-499.9863041613013,1511.252087331239,-291.9328854663812,1525.2518365651024,-124.06163408022437C1539.2515857989658,43.809617305932505,1595.4871602361718,198.83659330359492,1607.4332433461077,347.9181431690107C1619.3793264560436,496.9996930344265,1606.0747213463349,626.5889516756849,1596.9283352247176,770.4276651122702C1587.7819491031003,914.2663785488555,1564.9433613405004,1058.6147516081162,1552.554926616404,1210.9504237885224C1540.1664918923075,1363.2860959689285,1514.6902146495395,1526.2667688261276,1522.597726880139,1684.4416981947072C1530.5052391107383,1842.6166275632868,1587.0996211466897,2080.7402830324513,1600,2160L 1920 2160 L 1920 -1080 Z" fill="url(&quot;#SvgjsLinearGradient3219&quot;)"/><path d="M1760,-1080C1760.345342815399,-1008.0376537712293,1748.3665894447101,-773.4358668058487,1762.0720568923937,-648.2259226273758C1775.7775243400772,-523.0159784489028,1830.002580366709,-472.3484103049012,1842.2328046861012,-328.74033492916243C1854.4630290054934,-185.13225955342364,1848.0134008088671,72.57292445087828,1835.453402808746,213.42252962705695C1822.8934048086248,354.27213480323564,1779.422179682809,398.4282618547476,1766.8728166853741,516.3572961279095C1754.3234536879393,634.2863304010715,1759.001113789144,782.9007319628206,1760.1572248241373,920.9967352660288C1761.3133358591306,1059.092738569237,1780.4847848262611,1212.493210990108,1773.809482895334,1344.933315947159C1767.1341809644068,1477.3734209042098,1722.40699372113,1579.7929176661935,1720.1054132385743,1715.6373650083337C1717.8038327560187,1851.481812350474,1753.350902206429,2085.939560834722,1760,2160L 1920 2160 L 1920 -1080 Z" fill="url(&quot;#SvgjsLinearGradient3220&quot;)"/></g></g><defs><linearGradient x1="0.1" y1="0" x2="0" y2="1" id="SvgjsLinearGradient3209"><stop stop-color="#dedede" offset="0"/><stop stop-color="#dedede" offset="0"/></linearGradient><linearGradient x1="0.1" y1="0" x2="0" y2="1" id="SvgjsLinearGradient3210"><stop stop-color="#e1e1e1" offset="0"/><stop stop-color="#e1e1e1" offset="0.08333333333333333"/></linearGradient><linearGradient x1="0.1" y1="0" x2="0" y2="1" id="SvgjsLinearGradient3211"><stop stop-color="#e3e3e3" offset="0"/><stop stop-color="#e3e3e3" offset="0.16666666666666666"/></linearGradient><linearGradient x1="0.1" y1="0" x2="0" y2="1" id="SvgjsLinearGradient3212"><stop stop-color="#e6e6e6" offset="0"/><stop stop-color="#e6e6e6" offset="0.25"/></linearGradient><linearGradient x1="0.1" y1="0" x2="0" y2="1" id="SvgjsLinearGradient3213"><stop stop-color="#e9e9e9" offset="0"/><stop stop-color="#e9e9e9" offset="0.3333333333333333"/></linearGradient><linearGradient x1="0.1" y1="0" x2="0" y2="1" id="SvgjsLinearGradient3214"><stop stop-color="#ececec" offset="0"/><stop stop-color="#ececec" offset="0.4166666666666667"/></linearGradient><linearGradient x1="0.1" y1="0" x2="0" y2="1" id="SvgjsLinearGradient3215"><stop stop-color="#eeeeee" offset="0"/><stop stop-color="#eeeeee" offset="0.5"/></linearGradient><linearGradient x1="0.1" y1="0" x2="0" y2="1" id="SvgjsLinearGradient3216"><stop stop-color="#f1f1f1" offset="0"/><stop stop-color="#f1f1f1" offset="0.5833333333333334"/></linearGradient><linearGradient x1="0.1" y1="0" x2="0" y2="1" id="SvgjsLinearGradient3217"><stop stop-color="#f4f4f4" offset="0"/><stop stop-color="#f4f4f4" offset="0.6666666666666666"/></linearGradient><linearGradient x1="0.1" y1="0" x2="0" y2="1" id="SvgjsLinearGradient3218"><stop stop-color="#f7f7f7" offset="0"/><stop stop-color="#f7f7f7" offset="0.75"/></linearGradient><linearGradient x1="0.1" y1="0" x2="0" y2="1" id="SvgjsLinearGradient3219"><stop stop-color="#f9f9f9" offset="0"/><stop stop-color="#f9f9f9" offset="0.8333333333333334"/></linearGradient><linearGradient x1="0.1" y1="0" x2="0" y2="1" id="SvgjsLinearGradient3220"><stop stop-color="#fcfcfc" offset="0"/><stop stop-color="#fcfcfc" offset="0.9166666666666666"/></linearGradient><clipPath id="SvgjsClipPath3221"><rect width="1920" height="1080"/></clipPath></defs></svg>